<svg xmlns="http://www.w3.org/2000/svg" version="1.1" xmlns:xlink="http://www.w3.org/1999/xlink" width="1080" height="1080"><svg xmlns="http://www.w3.org/2000/svg" xmlns:xlink="http://www.w3.org/1999/xlink" width="1080" zoomAndPan="magnify" viewBox="0 0 810 809.999993" height="1080" preserveAspectRatio="xMidYMid meet" version="1.0"><defs><g></g><clipPath id="SvgjsClipPath1002"><rect x="0" width="288" y="0" height="732"></rect></clipPath></defs><rect x="-81" width="972" fill="#ffffff" y="-80.999999" height="971.999992" fill-opacity="1"></rect><rect x="-81" width="972" fill="#1f3fad" y="-80.999999" height="971.999992" fill-opacity="1"></rect><g transform="matrix(1, 0, 0, 1, 261, 78)"><g clip-path="url(#b9f893addb)"><g fill="#ffffff" fill-opacity="1"><g transform="translate(0.599815, 599.038954)"><g><path d="M 22.3125 -2.390625 C 22.3125 -48.597656 22.046875 -100.113281 21.515625 -156.9375 C 20.984375 -205.800781 20.316406 -263.820312 19.515625 -331 C 18.722656 -398.1875 17.53125 -472.144531 15.9375 -552.875 C 37.175781 -552.34375 61.335938 -552.34375 88.421875 -552.875 C 111.796875 -552.875 139.414062 -553.140625 171.28125 -553.671875 C 203.144531 -554.203125 238.992188 -555 278.828125 -556.0625 C 278.296875 -545.96875 278.03125 -534.019531 278.03125 -520.21875 C 277.5 -508 277.234375 -493.125 277.234375 -475.59375 C 277.234375 -458.070312 277.234375 -437.363281 277.234375 -413.46875 C 269.796875 -414 260.503906 -414.265625 249.359375 -414.265625 C 239.796875 -414.265625 227.578125 -414.128906 212.703125 -413.859375 C 197.835938 -413.597656 180.3125 -413.203125 160.125 -412.671875 L 160.125 -383.1875 C 160.125 -373.632812 159.988281 -361.953125 159.71875 -348.140625 C 159.457031 -334.328125 159.59375 -318.660156 160.125 -301.140625 C 164.90625 -301.140625 176.457031 -301.140625 194.78125 -301.140625 C 213.101562 -301.140625 237.664062 -301.671875 268.46875 -302.734375 L 268.46875 -263.6875 C 268.46875 -251.476562 268.46875 -236.742188 268.46875 -219.484375 C 268.46875 -202.222656 268.734375 -183.5 269.265625 -163.3125 C 262.359375 -163.84375 253.863281 -164.109375 243.78125 -164.109375 C 234.75 -164.109375 223.59375 -164.109375 210.3125 -164.109375 C 197.039062 -164.109375 181.109375 -163.84375 162.515625 -163.3125 C 163.046875 -139.414062 163.441406 -114.1875 163.703125 -87.625 C 163.972656 -61.070312 164.640625 -32.925781 165.703125 -3.1875 L 61.34375 -3.1875 C 46.46875 -3.1875 33.457031 -2.921875 22.3125 -2.390625 Z M 22.3125 -2.390625 "></path></g></g></g></g></g></svg><style>@media (prefers-color-scheme: light) { :root { filter: none; } }
@media (prefers-color-scheme: dark) { :root { filter: none; } }
</style></svg>