<svg xmlns="http://www.w3.org/2000/svg" width="1080" viewBox="0 0 810 810" height="1080" version="1.0"><path fill="#fff" d="M-81-81h972v972H-81z"/><path fill="#205589" d="M-81-81h972v972H-81z"/><path fill="#fff" d="M-81-81h972v972H-81z"/><path fill="#205589" d="M-81-81h972v972H-81z"/><path d="M251.625 403.239c14.25-.488 25.426-6.383 33.531-17.687 8.113-11.313 12.172-30.239 12.172-56.782 0-26.039-3.813-46.554-11.438-61.547-7.617-14.988-19.777-21.75-36.484-20.28 0 19.655.117 38.702.36 57.14.25 18.43.624 35.015 1.124 49.765.489 17.2.735 33.664.735 49.391Zm58.234 274.25-12.531-50.125c-3.93-16.219-8.844-35.754-14.75-58.61-5.899-22.85-12.777-48.535-20.64-77.046-.493.492-1.47.734-2.938.734h-7.375l2.953 158.5h-81.844c-16.71 0-34.89.25-54.547.75.489-39.32.977-84.785 1.469-136.39.488-44.239.852-97.32 1.094-159.25.25-61.926.375-131.958.375-210.094 22.125-3.926 43.015-6.992 62.672-9.203 19.656-2.22 38.086-3.328 55.297-3.328 68.312 0 118.316 15.605 150.015 46.812 31.707 31.2 47.563 77.516 47.563 138.953 0 32.438-5.532 59.469-16.594 81.094-11.063 21.625-26.18 39.32-45.344 53.078 2.945 9.836 10.317 32.57 22.11 68.203 11.8 35.637 29.007 84.664 51.625 147.078-10.325.489-22.368 1.223-36.125 2.203-11.805.989-26.31 2.098-43.516 3.329-17.2 1.226-36.856 2.332-58.969 3.312ZM461.695 659.052c0-42.75-.247-90.422-.735-143.016-.492-45.219-1.105-98.91-1.844-161.078-.742-62.176-1.843-130.617-3.312-205.328 19.656.492 42.016.492 67.078 0 21.625 0 47.18-.239 76.672-.72 29.488-.487 62.664-1.226 99.531-2.218-.492 9.336-.734 20.39-.734 33.172-.492 11.305-.735 25.063-.735 41.281v57.5c-6.886-.488-15.492-.734-25.812-.734-8.844 0-20.148.125-33.906.375-13.762.242-29.98.605-48.657 1.094v27.28c0 8.845-.125 19.657-.375 32.438-.242 12.782-.117 27.282.375 43.5h32.063c16.957 0 39.691-.492 68.203-1.484v77.063c0 15.968.242 33.289.734 51.953-6.398-.489-14.261-.735-23.593-.735h-30.969c-12.281 0-27.027.246-44.234.735.5 22.125.867 45.476 1.109 70.047.25 24.574.863 50.62 1.844 78.14H497.82c-13.762 0-25.805.246-36.125.735Zm0 0" fill="#fff"/></svg>